<mxfile host="app.diagrams.net" modified="2024-04-19T17:44:09.456Z" agent="Mozilla/5.0 (Windows NT 10.0; Win64; x64) AppleWebKit/537.36 (KHTML, like Gecko) Chrome/123.0.0.0 Safari/537.36 Edg/123.0.0.0" etag="UcQj1SlL2GOXV1GGIbZI" version="24.2.5" type="device" pages="2">
  <diagram name="Страница — 1" id="w9ud4hiAPZa-LkK1t-mg">
    <mxGraphModel dx="2994" dy="1697" grid="0" gridSize="10" guides="1" tooltips="1" connect="1" arrows="1" fold="1" page="0" pageScale="1" pageWidth="827" pageHeight="1169" background="#FFFFFF" math="0" shadow="0">
      <root>
        <mxCell id="0" />
        <mxCell id="1" parent="0" />
        <mxCell id="0yeRxNPqXhkmJoU_7JHl-8" value="" style="edgeStyle=none;curved=1;rounded=0;orthogonalLoop=1;jettySize=auto;html=1;fontSize=12;startSize=8;endSize=8;" edge="1" parent="1" source="0yeRxNPqXhkmJoU_7JHl-1" target="0yeRxNPqXhkmJoU_7JHl-7">
          <mxGeometry relative="1" as="geometry" />
        </mxCell>
        <mxCell id="0yeRxNPqXhkmJoU_7JHl-1" value="Учебная часть&lt;div&gt;&lt;br&gt;&lt;/div&gt;" style="shape=umlActor;verticalLabelPosition=bottom;verticalAlign=top;html=1;outlineConnect=0;" vertex="1" parent="1">
          <mxGeometry x="-334" y="-183" width="89" height="135" as="geometry" />
        </mxCell>
        <mxCell id="0yeRxNPqXhkmJoU_7JHl-39" value="" style="edgeStyle=none;curved=1;rounded=0;orthogonalLoop=1;jettySize=auto;html=1;fontSize=12;startSize=8;endSize=8;" edge="1" parent="1" source="0yeRxNPqXhkmJoU_7JHl-2" target="0yeRxNPqXhkmJoU_7JHl-38">
          <mxGeometry relative="1" as="geometry" />
        </mxCell>
        <mxCell id="0yeRxNPqXhkmJoU_7JHl-2" value="Преподаватель" style="shape=umlActor;verticalLabelPosition=bottom;verticalAlign=top;html=1;outlineConnect=0;" vertex="1" parent="1">
          <mxGeometry x="-334" y="132" width="89" height="135" as="geometry" />
        </mxCell>
        <mxCell id="0yeRxNPqXhkmJoU_7JHl-50" value="" style="edgeStyle=none;curved=1;rounded=0;orthogonalLoop=1;jettySize=auto;html=1;fontSize=12;startSize=8;endSize=8;" edge="1" parent="1" source="0yeRxNPqXhkmJoU_7JHl-3" target="0yeRxNPqXhkmJoU_7JHl-49">
          <mxGeometry relative="1" as="geometry" />
        </mxCell>
        <mxCell id="0yeRxNPqXhkmJoU_7JHl-3" value="Студент" style="shape=umlActor;verticalLabelPosition=bottom;verticalAlign=top;html=1;outlineConnect=0;" vertex="1" parent="1">
          <mxGeometry x="-334" y="460" width="89" height="135" as="geometry" />
        </mxCell>
        <mxCell id="0yeRxNPqXhkmJoU_7JHl-7" value="Планирование учебной программы" style="ellipse;whiteSpace=wrap;html=1;verticalAlign=top;" vertex="1" parent="1">
          <mxGeometry x="-38" y="-130" width="171.5" height="37" as="geometry" />
        </mxCell>
        <mxCell id="0yeRxNPqXhkmJoU_7JHl-9" value="" style="endArrow=none;dashed=1;html=1;rounded=0;fontSize=12;startSize=8;endSize=8;curved=1;entryX=0;entryY=0;entryDx=0;entryDy=0;startArrow=classic;startFill=1;exitX=0.5;exitY=1;exitDx=0;exitDy=0;" edge="1" parent="1" source="0yeRxNPqXhkmJoU_7JHl-10" target="0yeRxNPqXhkmJoU_7JHl-7">
          <mxGeometry width="50" height="50" relative="1" as="geometry">
            <mxPoint x="9" y="-159" as="sourcePoint" />
            <mxPoint x="-15" y="-125" as="targetPoint" />
          </mxGeometry>
        </mxCell>
        <mxCell id="0yeRxNPqXhkmJoU_7JHl-14" value="Включает" style="edgeLabel;html=1;align=center;verticalAlign=middle;resizable=0;points=[];fontSize=12;" vertex="1" connectable="0" parent="0yeRxNPqXhkmJoU_7JHl-9">
          <mxGeometry x="-0.086" y="-2" relative="1" as="geometry">
            <mxPoint as="offset" />
          </mxGeometry>
        </mxCell>
        <mxCell id="0yeRxNPqXhkmJoU_7JHl-10" value="Разработка учебного плана" style="ellipse;whiteSpace=wrap;html=1;" vertex="1" parent="1">
          <mxGeometry x="-83" y="-302" width="142" height="49" as="geometry" />
        </mxCell>
        <mxCell id="0yeRxNPqXhkmJoU_7JHl-11" value="" style="endArrow=none;dashed=1;html=1;rounded=0;fontSize=12;startSize=8;endSize=8;curved=1;entryX=1;entryY=0;entryDx=0;entryDy=0;startArrow=classic;startFill=1;exitX=0.5;exitY=1;exitDx=0;exitDy=0;" edge="1" parent="1" source="0yeRxNPqXhkmJoU_7JHl-13" target="0yeRxNPqXhkmJoU_7JHl-7">
          <mxGeometry width="50" height="50" relative="1" as="geometry">
            <mxPoint x="119" y="-195" as="sourcePoint" />
            <mxPoint x="111" y="-148" as="targetPoint" />
          </mxGeometry>
        </mxCell>
        <mxCell id="0yeRxNPqXhkmJoU_7JHl-15" value="Включает" style="edgeLabel;html=1;align=center;verticalAlign=middle;resizable=0;points=[];fontSize=12;" vertex="1" connectable="0" parent="0yeRxNPqXhkmJoU_7JHl-11">
          <mxGeometry x="0.0961" relative="1" as="geometry">
            <mxPoint x="1" as="offset" />
          </mxGeometry>
        </mxCell>
        <mxCell id="0yeRxNPqXhkmJoU_7JHl-13" value="Организация учебных мероприятий" style="ellipse;whiteSpace=wrap;html=1;" vertex="1" parent="1">
          <mxGeometry x="40" y="-245" width="142" height="55" as="geometry" />
        </mxCell>
        <mxCell id="0yeRxNPqXhkmJoU_7JHl-17" value="Разработка расписания" style="ellipse;whiteSpace=wrap;html=1;" vertex="1" parent="1">
          <mxGeometry x="3" y="-62" width="120" height="49" as="geometry" />
        </mxCell>
        <mxCell id="0yeRxNPqXhkmJoU_7JHl-18" value="" style="endArrow=classic;html=1;rounded=0;fontSize=12;startSize=8;endSize=8;curved=1;" edge="1" parent="1" target="0yeRxNPqXhkmJoU_7JHl-17">
          <mxGeometry width="50" height="50" relative="1" as="geometry">
            <mxPoint x="-244" y="-114" as="sourcePoint" />
            <mxPoint x="210" y="-17" as="targetPoint" />
            <Array as="points">
              <mxPoint x="-275" y="-22" />
            </Array>
          </mxGeometry>
        </mxCell>
        <mxCell id="0yeRxNPqXhkmJoU_7JHl-38" value="&lt;p align=&quot;center&quot; class=&quot;MsoNormal&quot;&gt;Разработка учебных материалов&lt;/p&gt;" style="ellipse;whiteSpace=wrap;html=1;verticalAlign=top;" vertex="1" parent="1">
          <mxGeometry x="-50.5" y="173.75" width="173.5" height="51.5" as="geometry" />
        </mxCell>
        <mxCell id="0yeRxNPqXhkmJoU_7JHl-40" value="&lt;p align=&quot;center&quot; class=&quot;MsoNormal&quot;&gt;Проведение учебных занятий&lt;/p&gt;" style="ellipse;whiteSpace=wrap;html=1;" vertex="1" parent="1">
          <mxGeometry x="123" y="78" width="120" height="70" as="geometry" />
        </mxCell>
        <mxCell id="0yeRxNPqXhkmJoU_7JHl-41" value="&lt;p align=&quot;center&quot; class=&quot;MsoNormal&quot;&gt;Оценка студенческих достижений&lt;/p&gt;" style="ellipse;whiteSpace=wrap;html=1;" vertex="1" parent="1">
          <mxGeometry x="-83" y="270" width="120" height="66" as="geometry" />
        </mxCell>
        <mxCell id="0yeRxNPqXhkmJoU_7JHl-42" value="" style="endArrow=classic;html=1;rounded=0;fontSize=12;startSize=8;endSize=8;curved=1;entryX=0;entryY=0.5;entryDx=0;entryDy=0;" edge="1" parent="1" target="0yeRxNPqXhkmJoU_7JHl-40">
          <mxGeometry width="50" height="50" relative="1" as="geometry">
            <mxPoint x="-240" y="200" as="sourcePoint" />
            <mxPoint x="230" y="257" as="targetPoint" />
            <Array as="points">
              <mxPoint x="-203" y="126" />
            </Array>
          </mxGeometry>
        </mxCell>
        <mxCell id="0yeRxNPqXhkmJoU_7JHl-44" value="" style="endArrow=classic;html=1;rounded=0;fontSize=12;startSize=8;endSize=8;curved=1;entryX=0;entryY=0.5;entryDx=0;entryDy=0;" edge="1" parent="1" target="0yeRxNPqXhkmJoU_7JHl-41">
          <mxGeometry width="50" height="50" relative="1" as="geometry">
            <mxPoint x="-238" y="200" as="sourcePoint" />
            <mxPoint x="230" y="257" as="targetPoint" />
            <Array as="points">
              <mxPoint x="-207" y="302" />
            </Array>
          </mxGeometry>
        </mxCell>
        <mxCell id="0yeRxNPqXhkmJoU_7JHl-45" value="&lt;h2&gt;&lt;i&gt;&lt;b&gt;&lt;font face=&quot;Times New Roman&quot;&gt;Запись данных в БД&lt;/font&gt;&lt;/b&gt;&lt;/i&gt;&lt;/h2&gt;" style="ellipse;whiteSpace=wrap;html=1;rotation=0;" vertex="1" parent="1">
          <mxGeometry x="-739" y="132" width="215" height="117" as="geometry" />
        </mxCell>
        <mxCell id="0yeRxNPqXhkmJoU_7JHl-46" value="" style="endArrow=classic;html=1;rounded=0;fontSize=12;startSize=8;endSize=8;curved=1;entryX=0.5;entryY=0;entryDx=0;entryDy=0;" edge="1" parent="1" target="0yeRxNPqXhkmJoU_7JHl-45">
          <mxGeometry width="50" height="50" relative="1" as="geometry">
            <mxPoint x="-348" y="-136" as="sourcePoint" />
            <mxPoint x="-87" y="94" as="targetPoint" />
            <Array as="points">
              <mxPoint x="-702" y="-161" />
            </Array>
          </mxGeometry>
        </mxCell>
        <mxCell id="0yeRxNPqXhkmJoU_7JHl-47" value="" style="endArrow=classic;html=1;rounded=0;fontSize=12;startSize=8;endSize=8;curved=1;entryX=1;entryY=0.5;entryDx=0;entryDy=0;" edge="1" parent="1" target="0yeRxNPqXhkmJoU_7JHl-45">
          <mxGeometry width="50" height="50" relative="1" as="geometry">
            <mxPoint x="-335" y="191" as="sourcePoint" />
            <mxPoint x="-87" y="94" as="targetPoint" />
          </mxGeometry>
        </mxCell>
        <mxCell id="0yeRxNPqXhkmJoU_7JHl-48" value="" style="endArrow=classic;html=1;rounded=0;fontSize=12;startSize=8;endSize=8;curved=1;entryX=0.5;entryY=1;entryDx=0;entryDy=0;" edge="1" parent="1" target="0yeRxNPqXhkmJoU_7JHl-45">
          <mxGeometry width="50" height="50" relative="1" as="geometry">
            <mxPoint x="-353" y="506" as="sourcePoint" />
            <mxPoint x="-87" y="94" as="targetPoint" />
            <Array as="points">
              <mxPoint x="-742" y="559" />
            </Array>
          </mxGeometry>
        </mxCell>
        <mxCell id="0yeRxNPqXhkmJoU_7JHl-49" value="&lt;p align=&quot;center&quot; class=&quot;MsoNormal&quot;&gt;Участие в учебных занятиях&lt;/p&gt;" style="ellipse;whiteSpace=wrap;html=1;verticalAlign=top;" vertex="1" parent="1">
          <mxGeometry x="110.25" y="492" width="145.5" height="60.5" as="geometry" />
        </mxCell>
        <mxCell id="0yeRxNPqXhkmJoU_7JHl-51" value="&lt;p align=&quot;center&quot; class=&quot;MsoNormal&quot;&gt;Выполнение учебных заданий&lt;/p&gt;" style="ellipse;whiteSpace=wrap;html=1;" vertex="1" parent="1">
          <mxGeometry x="-83" y="408" width="120" height="66" as="geometry" />
        </mxCell>
        <mxCell id="0yeRxNPqXhkmJoU_7JHl-52" value="" style="endArrow=classic;html=1;rounded=0;fontSize=12;startSize=8;endSize=8;curved=1;entryX=0;entryY=0.5;entryDx=0;entryDy=0;" edge="1" parent="1" target="0yeRxNPqXhkmJoU_7JHl-51">
          <mxGeometry width="50" height="50" relative="1" as="geometry">
            <mxPoint x="-240" y="529" as="sourcePoint" />
            <mxPoint x="45" y="419" as="targetPoint" />
            <Array as="points">
              <mxPoint x="-223" y="429" />
            </Array>
          </mxGeometry>
        </mxCell>
        <mxCell id="0yeRxNPqXhkmJoU_7JHl-53" value="&lt;p align=&quot;center&quot; class=&quot;MsoNormal&quot;&gt;Самостоятельная подготовка к занятиям&lt;/p&gt;" style="ellipse;whiteSpace=wrap;html=1;" vertex="1" parent="1">
          <mxGeometry x="3" y="601" width="135" height="78" as="geometry" />
        </mxCell>
        <mxCell id="0yeRxNPqXhkmJoU_7JHl-54" value="" style="endArrow=classic;html=1;rounded=0;fontSize=12;startSize=8;endSize=8;curved=1;entryX=0;entryY=0.5;entryDx=0;entryDy=0;" edge="1" parent="1" target="0yeRxNPqXhkmJoU_7JHl-53">
          <mxGeometry width="50" height="50" relative="1" as="geometry">
            <mxPoint x="-239" y="527" as="sourcePoint" />
            <mxPoint x="-98" y="664" as="targetPoint" />
            <Array as="points">
              <mxPoint x="-212" y="661" />
            </Array>
          </mxGeometry>
        </mxCell>
        <mxCell id="0yeRxNPqXhkmJoU_7JHl-56" value="" style="endArrow=none;dashed=1;html=1;rounded=0;fontSize=12;startSize=8;endSize=8;curved=1;entryX=0.5;entryY=0;entryDx=0;entryDy=0;startArrow=classic;startFill=1;exitX=0.5;exitY=1;exitDx=0;exitDy=0;" edge="1" parent="1" source="0yeRxNPqXhkmJoU_7JHl-41" target="0yeRxNPqXhkmJoU_7JHl-51">
          <mxGeometry width="50" height="50" relative="1" as="geometry">
            <mxPoint x="102" y="365" as="sourcePoint" />
            <mxPoint x="-183" y="332" as="targetPoint" />
          </mxGeometry>
        </mxCell>
        <mxCell id="0yeRxNPqXhkmJoU_7JHl-57" value="" style="endArrow=none;dashed=1;html=1;rounded=0;fontSize=12;startSize=8;endSize=8;curved=1;entryX=1;entryY=0.5;entryDx=0;entryDy=0;startArrow=classic;startFill=1;exitX=0.5;exitY=0;exitDx=0;exitDy=0;" edge="1" parent="1" source="0yeRxNPqXhkmJoU_7JHl-40" target="0yeRxNPqXhkmJoU_7JHl-7">
          <mxGeometry width="50" height="50" relative="1" as="geometry">
            <mxPoint x="258" y="65" as="sourcePoint" />
            <mxPoint x="182" y="78" as="targetPoint" />
            <Array as="points">
              <mxPoint x="218" y="-40" />
            </Array>
          </mxGeometry>
        </mxCell>
        <mxCell id="0yeRxNPqXhkmJoU_7JHl-58" value="" style="endArrow=classic;html=1;rounded=0;fontSize=12;startSize=8;endSize=8;curved=1;" edge="1" parent="1">
          <mxGeometry width="50" height="50" relative="1" as="geometry">
            <mxPoint x="-289" y="114" as="sourcePoint" />
            <mxPoint x="-289" y="-16" as="targetPoint" />
          </mxGeometry>
        </mxCell>
        <mxCell id="0yeRxNPqXhkmJoU_7JHl-59" value="" style="endArrow=none;dashed=1;html=1;rounded=0;fontSize=12;startSize=8;endSize=8;curved=1;startArrow=classic;startFill=1;entryX=0.5;entryY=0;entryDx=0;entryDy=0;exitX=0.5;exitY=1;exitDx=0;exitDy=0;" edge="1" parent="1" source="0yeRxNPqXhkmJoU_7JHl-40" target="0yeRxNPqXhkmJoU_7JHl-49">
          <mxGeometry width="50" height="50" relative="1" as="geometry">
            <mxPoint x="260" y="362" as="sourcePoint" />
            <mxPoint x="150" y="362" as="targetPoint" />
          </mxGeometry>
        </mxCell>
        <mxCell id="0yeRxNPqXhkmJoU_7JHl-60" value="Добавление/Удаление/Замена предмета" style="ellipse;whiteSpace=wrap;html=1;" vertex="1" parent="1">
          <mxGeometry x="-149" y="25" width="140" height="71" as="geometry" />
        </mxCell>
        <mxCell id="0yeRxNPqXhkmJoU_7JHl-61" value="" style="endArrow=none;dashed=1;html=1;dashPattern=1 3;strokeWidth=2;rounded=0;fontSize=12;startSize=8;endSize=8;curved=1;entryX=1;entryY=0;entryDx=0;entryDy=0;startArrow=classic;startFill=1;exitX=0;exitY=1;exitDx=0;exitDy=0;" edge="1" parent="1" source="0yeRxNPqXhkmJoU_7JHl-17" target="0yeRxNPqXhkmJoU_7JHl-60">
          <mxGeometry width="50" height="50" relative="1" as="geometry">
            <mxPoint x="56" y="37" as="sourcePoint" />
            <mxPoint x="65" y="1" as="targetPoint" />
            <Array as="points" />
          </mxGeometry>
        </mxCell>
      </root>
    </mxGraphModel>
  </diagram>
  <diagram id="e9MAHo-44Cwl6J33xOfa" name="Страница — 2">
    <mxGraphModel dx="1426" dy="843" grid="0" gridSize="10" guides="1" tooltips="1" connect="1" arrows="1" fold="1" page="0" pageScale="1" pageWidth="827" pageHeight="1169" math="0" shadow="0">
      <root>
        <mxCell id="0" />
        <mxCell id="1" parent="0" />
      </root>
    </mxGraphModel>
  </diagram>
</mxfile>
